<svg width="602.998" height="210.715" viewBox="0 0 159.543 55.752" xml:space="preserve" xmlns="http://www.w3.org/2000/svg">
    <g aria-label="shoply" style="font-size:22.5778px;line-height:1.25;letter-spacing:0;word-spacing:0;fill:#d21849;fill-opacity:1;stroke-width:.264583">
        <path d="m99.818 184.144 2.348.881q.835.316 1.264.97.452.633.452 1.423 0 1.22-.97 2.168-.972.948-2.62.948-1.626 0-3.07-.61.135-.541.135-1.896v-.903h.406l.158 1.174q.204 1.693 2.371 1.693.97 0 1.603-.587.655-.61.655-1.377 0-1.061-1.287-1.535l-2.348-.881q-.79-.293-1.197-.926-.406-.632-.406-1.422 0-1.197.858-2.1.858-.925 2.145-.925 1.31 0 2.935.61-.136.541-.136 1.896v.903h-.406l-.158-1.174q-.18-1.626-2.055-1.626-.835 0-1.377.52-.542.519-.542 1.219 0 1.083 1.242 1.557zM114.764 183.67v5.916c0 .18.106.27.317.27h1.06v.407c-8.65-.005-2.222-.006-10.566 0v-.406h1.061c.211 0 .317-.09.317-.271v-13.23c0-.212-.106-.317-.317-.317h-1.06v-.406h1.106c.75 0 .96.031 1.823.038.133.97.09 6.536.077 7.496-.176-3.495 4.236-3.472 5.37-2.07.541.556.812 1.414.812 2.573zM118.986 189.157q-1.264-1.378-1.264-3.77 0-2.394 1.264-3.771 1.265-1.377 3.297-1.377t3.296 1.377q1.287 1.377 1.287 3.77t-1.287 3.77q-1.264 1.378-3.296 1.378t-3.297-1.377zm1.265-7.157q-.813 1.241-.813 3.386t.813 3.41q.813 1.241 2.032 1.241t2.032-1.242q.835-1.264.835-3.409 0-2.145-.835-3.386-.813-1.265-2.032-1.265-1.22 0-2.032 1.265zM129.824 194.417v-13.185q0-.316-.316-.316h-1.061v-.407h1.106q1.355 0 1.896-.135v3.16q.384-1.625 1.22-2.46.858-.836 1.896-.836 1.423 0 2.506 1.423 1.084 1.422 1.084 3.77t-1.242 3.726q-1.219 1.377-3.206 1.377-1.242 0-2.258-.61v4.493q0 .316.317.316h1.512v.407h-4.831v-.407h1.06q.317 0 .317-.316zm6.615-8.94q0-2.1-.655-3.23-.654-1.15-1.67-1.15-.994 0-1.83 1.332-.835 1.332-.835 3.838v3.048q.994.655 2.168.655 1.197 0 2.01-1.197.812-1.197.812-3.296zM141.113 189.54v-13.185q0-.316-.316-.316h-1.062v-.406h1.107q1.354 0 1.896-.136v14.044q0 .316.316.316h1.062v.406h-4.38v-.406h1.06q.317 0 .317-.316zM151.34 180.51h2.868v.406h-.836q-.203 0-.316.316l-3.906 10.453q-.067.204-.225.61l-.249.61q-.067.203-.203.542-.135.36-.226.541-.09.204-.225.475-.159.338-.452.632-.294.316-.61.316t-.677-.407q-.339-.383-.406-.835 2.054-.88 2.8-2.935l.383-1.039-3.341-8.963q-.113-.316-.316-.316h-.836v-.407h3.838v.407h-1.129l2.597 7.134 2.619-7.134h-1.152z" style="font-family:Arapey;-inkscape-font-specification:Arapey;fill:#d21849;fill-opacity:1" transform="matrix(2.79967 0 0 2.79967 -272.188 -491.335)"/>
    </g>
</svg>
